<svg width="30" height="32" viewBox="0 0 30 32" fill="none" xmlns="http://www.w3.org/2000/svg">
<path fill-rule="evenodd" clip-rule="evenodd" d="M4.25799 22.4862L2.49988 29.3334L9.06907 27.496C10.8792 28.5489 12.917 29.1038 14.9907 29.1047H14.9961C21.8256 29.1047 27.3852 23.1762 27.3882 15.8908C27.3894 12.3597 26.1013 9.03986 23.762 6.54216C21.422 4.04446 18.3108 2.66847 14.9961 2.66675C8.16529 2.66675 2.60663 8.59424 2.60386 15.8801C2.60316 18.209 3.17365 20.4824 4.25799 22.4862ZM4.69619 15.8809C4.69828 9.82541 9.31861 4.89886 15 4.89886C17.7513 4.90009 20.337 6.04382 22.2818 8.11967C24.2265 10.1955 25.2967 12.9551 25.2957 15.8898C25.2934 21.9458 20.6731 26.8729 14.996 26.8729H14.9921C13.1435 26.8719 11.3308 26.3426 9.74981 25.3417L9.37338 25.1038L5.47507 26.194L6.51584 22.1414L6.27075 21.7259C5.23979 19.9771 4.69535 17.956 4.69619 15.8809Z" fill="#CFD3D4"/>
<path fill-rule="evenodd" clip-rule="evenodd" d="M11.899 10.3559C11.6669 9.80609 11.4227 9.79495 11.2023 9.7853C11.0217 9.77712 10.8151 9.77762 10.6088 9.77762C10.4022 9.77762 10.0669 9.86031 9.78323 10.1908C9.49938 10.5213 8.69935 11.3202 8.69935 12.9452C8.69935 14.5703 9.809 16.1403 9.96357 16.3609C10.1184 16.5813 12.1056 20.0224 15.253 21.3462C17.8685 22.4464 18.4006 22.2275 18.9686 22.1726C19.5363 22.1176 20.8005 21.3737 21.0584 20.6025C21.3164 19.8313 21.3164 19.1706 21.2392 19.0324C21.1616 18.8945 20.9553 18.8121 20.6455 18.647C20.3358 18.4818 18.8135 17.6827 18.5297 17.5725C18.2458 17.4623 18.0395 17.4074 17.8329 17.7379C17.6266 18.0684 17.0336 18.8121 16.8528 19.0324C16.6722 19.253 16.4917 19.2805 16.1818 19.1153C15.8722 18.9497 14.8749 18.6014 13.6919 17.4762C12.7714 16.6008 12.1501 15.5197 11.9693 15.1892C11.7888 14.8587 11.9501 14.6799 12.1053 14.5153C12.2444 14.3673 12.4149 14.1296 12.57 13.9367C12.7243 13.7439 12.7761 13.6062 12.8791 13.3862C12.9824 13.1656 12.9309 12.9727 12.8534 12.8076C12.7761 12.6425 12.1743 11.009 11.899 10.3559Z" fill="#CFD3D4"/>
</svg>
